<?xml version="1.0" encoding="UTF-8"?>
<svg version="1.1" xmlns="http://www.w3.org/2000/svg" width="192" height="192">
<path d="M0 0 C63.36 0 126.72 0 192 0 C192 63.36 192 126.72 192 192 C128.64 192 65.28 192 0 192 C0 128.64 0 65.28 0 0 Z " fill="#29A33A" transform="translate(0,0)"/>
<path d="M0 0 C18.34113474 6.34885433 30.88026419 25.41605473 39 42 C39.47308594 43.10730469 39.94617187 44.21460938 40.43359375 45.35546875 C42.05458494 49.12700187 43.83250103 52.77784649 45.6875 56.4375 C46.00783203 57.07365234 46.32816406 57.70980469 46.65820312 58.36523438 C47.43694422 59.91109357 48.21820334 61.45568387 49 63 C44.33946033 40.67846788 32.46940278 20.32655433 13.8125 6.8125 C12.884375 6.214375 11.95625 5.61625 11 5 C11.66 4.67 12.32 4.34 13 4 C14.71030172 5.22642632 16.41814154 6.4562861 18.125 7.6875 C19.07632813 8.37199219 20.02765625 9.05648438 21.0078125 9.76171875 C26.69478102 14.01580878 31.32013033 18.26894091 35.625 23.875 C36.0890625 24.46152344 36.553125 25.04804688 37.03125 25.65234375 C40.0935514 29.58835262 42.61441241 33.62082278 45 38 C45 33.71 45 29.42 45 25 C46.32 24.67 47.64 24.34 49 24 C53.73001767 30.54570435 57.1623118 37.2665223 60.3125 44.6875 C60.75400391 45.69361328 61.19550781 46.69972656 61.65039062 47.73632812 C63.71770639 52.53895908 65.27720874 56.7918054 66 62 C67.0828125 60.9171875 67.0828125 60.9171875 68.1875 59.8125 C69.98985427 58.01014573 71.82121908 56.23607527 73.6875 54.5 C75.97217828 52.03007754 77.00099201 50.17866178 78 47 C79.62463842 46.94604522 81.24978541 46.90722805 82.875 46.875 C84.23238281 46.84019531 84.23238281 46.84019531 85.6171875 46.8046875 C88 47 88 47 90 49 C90.309375 50.093125 90.61875 51.18625 90.9375 52.3125 C91.91692001 55.71166357 93.17813313 58.0187633 95 61 C95 61.99 95 62.98 95 64 C96.65 63.67 98.3 63.34 100 63 C99.54947266 61.96939453 99.54947266 61.96939453 99.08984375 60.91796875 C98.70957031 60.01691406 98.32929687 59.11585937 97.9375 58.1875 C97.55464844 57.29417969 97.17179687 56.40085938 96.77734375 55.48046875 C96 53 96 53 97 50 C98.32 50 99.64 50 101 50 C101 45.71 101 41.42 101 37 C102.32 36.67 103.64 36.34 105 36 C109.30811437 38.81306098 112.23272952 43.23945192 114.875 47.5625 C118.48980939 53.26240159 123.61941048 56.87313683 130 59 C132.7813654 59.09719057 135.53185227 59.13917492 138.3125 59.125 C139.43301758 59.13080078 139.43301758 59.13080078 140.57617188 59.13671875 C144.82759858 59.12925356 148.81297691 58.83873595 153 58 C153.66 55.69 154.32 53.38 155 51 C158.02346601 50.7480445 159.6402007 50.79578959 162.3125 52.3125 C164 54 164 54 164 57 C159.77777778 60 159.77777778 60 157 60 C157.10169161 62.94727535 157.10169161 62.94727535 158 66 C160.34754398 67.33903214 160.34754398 67.33903214 163 68 C166 70 166 70 166.40942383 71.80712891 C166.35488957 80.20898134 164.49919588 88.21494441 162.6875 96.375 C162.33402668 98.00326159 161.98168257 99.63176865 161.63037109 101.26049805 C160.85667803 104.84397578 160.078157 108.42636397 159.29736328 112.00830078 C157.86896652 118.58211137 156.47766548 125.16361503 155.08984375 131.74609375 C154.84399033 132.91207092 154.5981369 134.0780481 154.34483337 135.27935791 C153.84978792 137.62796832 153.35484834 139.97660105 152.86001587 142.32525635 C151.68261389 147.91137732 150.50214317 153.49684575 149.3203125 159.08203125 C149.11538681 160.05248886 148.91046112 161.02294647 148.69932556 162.02281189 C148.31559661 163.83582715 147.9252914 165.64746707 147.52740479 167.45742798 C147.18047145 169.12996302 146.87740605 170.81230135 146.62249756 172.50131226 C146.49296692 173.28293732 146.36343628 174.06456238 146.22998047 174.86987305 C146.13490204 175.54866013 146.03982361 176.2274472 145.94186401 176.92680359 C144.43459877 180.24454039 142.13416458 182.28075958 139 184 C136.00298976 184.69243065 133.11089944 184.68474998 130.04467773 184.64697266 C129.16425812 184.65573425 128.2838385 184.66449585 127.3767395 184.67352295 C124.47851686 184.69545587 121.58183077 184.68098731 118.68359375 184.6640625 C116.66390186 184.66743209 114.64421194 184.6722859 112.62452698 184.67855835 C108.39703007 184.68592115 104.17006225 184.67524195 99.94262695 184.65185547 C94.52617825 184.62334999 89.11096731 184.63978697 83.69456387 184.66971779 C79.5260537 184.68779105 75.35783673 184.68203287 71.1893177 184.66907883 C69.19223954 184.66574585 67.19513467 184.66982806 65.19808769 184.68147659 C62.40665086 184.6941877 59.61721558 184.67480587 56.82592773 184.64697266 C56.00241318 184.65709381 55.17889862 184.66721497 54.33042908 184.67764282 C50.08515709 184.59928786 48.46792973 184.36863019 45.01806641 181.65086365 C42.66634591 178.56172329 41.95618705 176.29253991 41.19140625 172.49609375 C40.92231445 171.21138184 40.65322266 169.92666992 40.37597656 168.60302734 C40.10453822 167.21457284 39.83338605 165.82606236 39.5625 164.4375 C39.26846925 163.00433561 38.97254561 161.57155836 38.67480469 160.13916016 C38.06672443 157.20275152 37.46827546 154.26463301 36.87744141 151.32470703 C35.56697507 144.82746894 34.15184888 138.35304554 32.75 131.875 C32.28566121 129.70589965 31.82209098 127.53663461 31.359375 125.3671875 C30.40830831 120.90942919 29.45313827 116.45257234 28.49609375 111.99609375 C27.08328324 105.39688964 25.6756152 98.79716738 24.3125 92.1875 C24.08755859 91.13369141 23.86261719 90.07988281 23.63085938 88.99414062 C22.3774037 82.87163828 21.59277759 77.2524302 22 71 C23.75 68.4375 23.75 68.4375 26 67 C27.32 67 28.64 67 30 67 C26.18575499 48.67562014 17.67767501 30.39023194 1.63671875 19.64453125 C0.76660156 19.10183594 -0.10351562 18.55914063 -1 18 C-0.67 17.34 -0.34 16.68 0 16 C16.25167872 26.01009196 27.09696835 39.38262485 36 56 C32.26911228 47.90863725 28.5041171 40.76824261 22.6015625 33.98828125 C21 32 21 32 20 29 C19.071875 28.5359375 19.071875 28.5359375 18.125 28.0625 C15.59402625 26.79701313 14.55151442 25.32727163 13 23 C16.11569405 24.40171536 18.4114956 26.08408908 20.9375 28.375 C23.8782491 31.02927454 26.8904208 33.54478442 30 36 C22.64453284 22.5707001 14.11238669 11.17270252 1.546875 2.171875 C1.03640625 1.78515625 0.5259375 1.3984375 0 1 C0 0.67 0 0.34 0 0 Z " fill="#FCFDFC" transform="translate(20,4)"/>
<path d="M0 0 C5.05548527 2.26961092 8.64113601 5.7636838 11.71484375 10.34765625 C12.64351449 13.13366848 12.87826592 14.95831714 12.90234375 17.84765625 C12.91652344 18.62109375 12.93070313 19.39453125 12.9453125 20.19140625 C12.71484375 22.34765625 12.71484375 22.34765625 10.71484375 25.34765625 C11.06089986 27.63162657 11.68188894 29.28174662 12.71484375 31.34765625 C13.30513566 37.02354001 13.02925438 41.53641501 9.71484375 46.34765625 C5.34221909 50.84984015 1.19981247 53.94428167 -5.1875 54.68359375 C-11.41188581 54.76370168 -15.51557123 54.77655662 -20.28515625 50.34765625 C-27.42597663 42.76792019 -27.42597663 42.76792019 -27.47265625 36.41015625 C-27.48683594 35.53488281 -27.50101562 34.65960938 -27.515625 33.7578125 C-27.28515625 31.34765625 -27.28515625 31.34765625 -25.28515625 28.34765625 C-25.56789763 25.03679366 -25.56789763 25.03679366 -27.28515625 22.34765625 C-27.84630847 17.46287213 -27.84368514 13.4861959 -25.66015625 9.03515625 C-18.4653069 0.8936162 -10.99767019 -3.13950585 0 0 Z " fill="#36A946" transform="translate(121.28515625,97.65234375)"/>
<path d="M0 0 C3.43128096 1.80447623 5.83548933 3.77087946 8 7 C8.74890009 10.14642051 8.74373842 12.85435227 8 16 C7.34 16.99 6.68 17.98 6 19 C2.96133201 19.41137202 0.07840297 19.13193156 -3 19 C-3 23.95 -3 28.9 -3 34 C-1.02 34 0.96 34 3 34 C3 31.03 3 28.06 3 25 C4.65 25.33 6.3 25.66 8 26 C8.7826087 34.95652174 8.7826087 34.95652174 5.75 39 C0.85710458 42.55846939 -2.55535735 43.49727277 -8.58984375 43.390625 C-12.29194274 42.79060896 -13.8188954 40.93085931 -16 38 C-18.70238949 33.94641576 -18.22937614 31.81689896 -18 27 C-17.67 26.34 -17.34 25.68 -17 25 C-13.7 25 -10.4 25 -7 25 C-7 19.72 -7 14.44 -7 9 C-8.98 9 -10.96 9 -13 9 C-13 12.3 -13 15.6 -13 19 C-17 18 -17 18 -18 17 C-18.8196649 12.58901981 -19.0606348 8.64152743 -16.56640625 4.78125 C-11.66872538 -0.02774047 -6.72665463 -1.83550671 0 0 Z " fill="#F2F9F3" transform="translate(119,103)"/>
<path d="M0 0 C2.31 0.33 4.62 0.66 7 1 C7 1.66 7 2.32 7 3 C8.6832572 4.46865317 8.6832572 4.46865317 10.875 6 C27.38415861 18.60793333 41.5052945 38.03176701 45 59 C44.69894566 60.34099037 44.3694102 61.6762081 44 63 C36.06621622 47.30574324 36.06621622 47.30574324 34 42.375 C26.61414064 25.47460566 15.63314689 11.02124801 0 1 C0 0.67 0 0.34 0 0 Z " fill="#45AF54" transform="translate(25,6)"/>
<path d="M0 0 C3.69867251 1.31537297 6.44891315 2.91479265 9.5 5.375 C10.2321875 5.96023437 10.964375 6.54546875 11.71875 7.1484375 C12.4715625 7.75945313 13.224375 8.37046875 14 9 C14.80308594 9.59425781 15.60617188 10.18851563 16.43359375 10.80078125 C19.59878646 13.51311534 22.0248334 16.52162861 24.5625 19.8125 C25.03107422 20.40353516 25.49964844 20.99457031 25.98242188 21.60351562 C29.06452604 25.5563681 31.60414028 29.59725542 34 34 C34.66 33.34 35.32 32.68 36 32 C36.53154742 33.60064843 37.04988353 35.20568874 37.5625 36.8125 C37.85253906 37.70582031 38.14257812 38.59914062 38.44140625 39.51953125 C39 42 39 42 38 45 C33.29125318 43.54289594 33.29125318 43.54289594 32.0234375 41.1796875 C31.80945313 40.41914062 31.59546875 39.65859375 31.375 38.875 C25.84769851 23.53618341 13.38985939 9.92657293 0 1 C0 0.67 0 0.34 0 0 Z " fill="#DCF0DF" transform="translate(31,8)"/>
<path d="M0 0 C4.51702564 0.71321458 5.97434284 1.69140294 8.8125 5.3125 C10.90573768 8.00349063 10.90573768 8.00349063 13.25 10.125 C20.30506578 17.50075059 26.45219955 26.38085902 30 36 C29.67 36.99 29.34 37.98 29 39 C28.45472656 37.90042969 27.90945312 36.80085938 27.34765625 35.66796875 C20.76026189 22.64228959 13.10893473 12.48157012 2.08984375 2.8984375 C1.40019531 2.27195312 0.71054687 1.64546875 0 1 C0 0.67 0 0.34 0 0 Z " fill="#6ABF75" transform="translate(27,24)"/>
<path d="M0 0 C4.91741794 0.43388982 7.5589194 2.5589194 11 6 C11.875 8.8125 11.875 8.8125 12 11 C9.3125 11.375 9.3125 11.375 6 11 C2.47359778 7.63032676 0.43365551 4.91476244 0 0 Z " fill="#ECF7EE" transform="translate(91,38)"/>
<path d="M0 0 C2.00293347 3.00440021 2.49271626 4.70993945 3.125 8.1875 C3.29257813 9.08855469 3.46015625 9.98960938 3.6328125 10.91796875 C3.75398438 11.60503906 3.87515625 12.29210938 4 13 C1.125 12.375 1.125 12.375 -2 11 C-3.52863137 7.94273726 -4.16050788 6.01654989 -3.625 2.625 C-3.41875 2.08875 -3.2125 1.5525 -3 1 C-2.34 1.33 -1.68 1.66 -1 2 C-0.67 1.34 -0.34 0.68 0 0 Z " fill="#ECF7ED" transform="translate(66,40)"/>
<path d="M0 0 C3.69867251 1.31537297 6.44891315 2.91479265 9.5 5.375 C10.66208984 6.30892578 10.66208984 6.30892578 11.84765625 7.26171875 C12.55792969 7.83535156 13.26820312 8.40898437 14 9 C14.969375 9.721875 15.93875 10.44375 16.9375 11.1875 C19.01887241 13.01658484 19.99459665 14.44079147 21 17 C18 17 18 17 15.546875 14.76953125 C14.60842728 13.78971344 13.67644034 12.80367878 12.75 11.8125 C8.76770146 7.67080369 4.78031164 4.18687443 0 1 C0 0.67 0 0.34 0 0 Z " fill="#E1F2E3" transform="translate(31,8)"/>
<path d="M0 0 C3.14906415 1.41602213 5.49523672 3.13735082 8.0625 5.4375 C8.73410156 6.03433594 9.40570313 6.63117187 10.09765625 7.24609375 C11.7754479 8.79296942 13.40159243 10.37171566 15 12 C14.34 12 13.68 12 13 12 C12.67 12.66 12.34 13.32 12 14 C7 8.25 7 8.25 7 6 C6.401875 5.7525 5.80375 5.505 5.1875 5.25 C2.71352479 3.83629988 1.56629745 2.34944617 0 0 Z " fill="#C5E6C9" transform="translate(33,27)"/>
<path d="M0 0 C4.15151338 1.44202476 7.29978445 3.5010438 10.8125 6.125 C11.78832031 6.84945313 12.76414062 7.57390625 13.76953125 8.3203125 C14.50558594 8.87460938 15.24164063 9.42890625 16 10 C15.01 10.66 14.02 11.32 13 12 C11.58191941 10.75160427 10.16560005 9.50120779 8.75 8.25 C7.96109375 7.55390625 7.1721875 6.8578125 6.359375 6.140625 C4.16988144 4.15413084 2.07098715 2.10898692 0 0 Z " fill="#C7E7CB" transform="translate(20,4)"/>
<path d="M0 0 C5.27710354 2.3439244 9.15080717 4.66965806 13 9 C12.01 9.33 11.02 9.66 10 10 C8.02734375 8.6015625 8.02734375 8.6015625 5.9375 6.625 C3.18958113 3.99549245 3.18958113 3.99549245 0 2 C0 1.34 0 0.68 0 0 Z " fill="#CAE8CE" transform="translate(19,20)"/>
<path d="M0 0 C5.08938811 1.59043379 8.87456643 4.7446951 13 8 C12.34 8.66 11.68 9.32 11 10 C9.72799029 8.89718873 8.45744147 7.79269231 7.1875 6.6875 C6.47980469 6.07261719 5.77210937 5.45773438 5.04296875 4.82421875 C3.29863261 3.26665665 1.63221959 1.67341125 0 0 Z " fill="#C7E7CC" transform="translate(31,8)"/>
<path d="M0 0 C2.00293347 3.00440021 2.49271626 4.70993945 3.125 8.1875 C3.29257813 9.08855469 3.46015625 9.98960938 3.6328125 10.91796875 C3.75398438 11.60503906 3.87515625 12.29210938 4 13 C0.71779105 11.35889552 0.25429211 8.30677012 -1 5 C-1 2 -1 2 0 0 Z " fill="#8BCD94" transform="translate(66,40)"/>
<path d="M0 0 C2.31 0.33 4.62 0.66 7 1 C7 1.66 7 2.32 7 3 C8.45833358 4.62514468 8.45833358 4.62514468 10 6 C6.62972148 6 5.93297304 5.50175992 3.3125 3.5625 C2.68988281 3.11003906 2.06726563 2.65757813 1.42578125 2.19140625 C0.95527344 1.79824219 0.48476563 1.40507813 0 1 C0 0.67 0 0.34 0 0 Z " fill="#57B765" transform="translate(25,6)"/>
<path d="M0 0 C0 3 0 3 -1 5 C-2.98 5 -4.96 5 -7 5 C-7.33 4.34 -7.66 3.68 -8 3 C-5.36 2.01 -2.72 1.02 0 0 Z " fill="#88CC92" transform="translate(106,46)"/>
<path d="M0 0 C2.25245881 2.68841859 3.88213958 4.64641875 5 8 C4.01 7.67 3.02 7.34 2 7 C2 6.34 2 5.68 2 5 C1.0409375 4.566875 1.0409375 4.566875 0.0625 4.125 C-2 3 -2 3 -3 1 C-2.01 0.67 -1.02 0.34 0 0 Z " fill="#6ABF75" transform="translate(46,33)"/>
</svg>
